<svg width="22" height="18" viewBox="0 0 22 18" fill="none" xmlns="http://www.w3.org/2000/svg">
<path fill-rule="evenodd" clip-rule="evenodd" d="M21.2169 2.70743C21.4512 2.70743 21.6855 2.81157 21.8417 3.01983C21.9979 3.22809 22.05 3.48842 21.9458 3.72272L20.0454 9.99668C19.681 11.2202 18.5876 12.0273 17.312 12.0273H9.11155C7.86197 12.0273 6.74255 11.2202 6.37809 10.0227L3.98305 2.29091C3.85289 1.84834 3.46239 1.56198 2.9938 1.56198H0.78099C0.338429 1.56198 0 1.22355 0 0.78099C0 0.338429 0.338429 0 0.78099 0H2.9938C4.16528 0 5.15454 0.728924 5.49296 1.82231L5.77933 2.70743H21.2169ZM9.2937 12.9124C7.96601 12.9124 6.89866 14.0058 6.89866 15.3334C6.89866 16.6872 7.96601 17.7805 9.2937 17.7805C10.6214 17.7805 11.6887 16.6872 11.6887 15.3334C11.6887 13.9797 10.6214 12.9124 9.2937 12.9124ZM16.7653 12.9124C15.4376 12.9124 14.3702 14.0058 14.3702 15.3334C14.3702 16.6872 15.4376 17.7805 16.7653 17.7805C18.093 17.7805 19.1603 16.6872 19.1603 15.3334C19.1343 13.9797 18.0669 12.9124 16.7653 12.9124Z" fill="white"/>
</svg>
